<svg xmlns="http://www.w3.org/2000/svg" width="835.213" height="613.098" data-name="Layer 1" viewBox="0 0 835.213 613.098"><path fill="#f1f1f1" d="m789.434 613.098.951-1.759c-12.753-6.897-28.626-15.48-36.916-29.567-8.172-13.886-8.356-32.743-.478-49.211 6.703-14.016 19.017-26.572 35.61-36.313 3.274-1.921 6.71-3.742 10.032-5.503 8.032-4.257 16.337-8.659 23.184-14.903 9.432-8.601 16.568-23.035 11.25-35.891a23.856 23.856 0 0 0-20.678-14.468l-.113 1.997a21.86 21.86 0 0 1 18.948 13.248c4.943 11.948-1.839 25.505-10.754 33.636-6.66 6.074-14.852 10.415-22.773 14.614-3.342 1.77-6.798 3.602-10.108 5.545-16.939 9.944-29.526 22.798-36.403 37.175-8.16 17.06-7.946 36.636.56 51.089 8.572 14.566 24.716 23.296 37.688 30.311Z"/><ellipse cx="799.713" cy="427.525" fill="#f1f1f1" rx="17.5" ry="8.5"/><ellipse cx="785.713" cy="483.525" fill="#f1f1f1" rx="17.5" ry="8.5"/><ellipse cx="817.713" cy="492.525" fill="#f1f1f1" rx="17.5" ry="8.5"/><ellipse cx="767.713" cy="539.525" fill="#f1f1f1" rx="17.5" ry="8.5"/><ellipse cx="732.713" cy="539.525" fill="#f1f1f1" rx="17.5" ry="8.5"/><path fill="#6c63ff" d="M137.286 439.484H75.191a6.35 6.35 0 0 1-6.342-6.342V228.544a6.35 6.35 0 0 1 6.342-6.342h62.095a6.35 6.35 0 0 1 6.343 6.342v204.598a6.35 6.35 0 0 1-6.343 6.342ZM250.524 439.484h-62.095a6.35 6.35 0 0 1-6.342-6.342V147.355a6.35 6.35 0 0 1 6.342-6.342h62.095a6.35 6.35 0 0 1 6.342 6.342v285.787a6.35 6.35 0 0 1-6.342 6.342ZM363.761 439.484h-62.094a6.35 6.35 0 0 1-6.343-6.342V228.544a6.35 6.35 0 0 1 6.343-6.342h62.094a6.35 6.35 0 0 1 6.343 6.342v204.598a6.35 6.35 0 0 1-6.343 6.342ZM476.999 439.484h-62.095a6.21 6.21 0 0 1-6.342-6.055V115.02a6.21 6.21 0 0 1 6.342-6.055H477a6.21 6.21 0 0 1 6.342 6.055v318.41a6.21 6.21 0 0 1-6.342 6.055ZM590.236 439.484h-62.094a6.35 6.35 0 0 1-6.343-6.342V57.619a6.35 6.35 0 0 1 6.343-6.342h62.094a6.35 6.35 0 0 1 6.343 6.342v375.523a6.35 6.35 0 0 1-6.343 6.342Z"/><circle cx="106.239" cy="183.744" r="12.819" fill="#3f3d56"/><circle cx="219.476" cy="100.418" r="12.819" fill="#3f3d56"/><circle cx="332.714" cy="183.744" r="12.819" fill="#3f3d56"/><circle cx="445.951" cy="59.824" r="12.819" fill="#3f3d56"/><circle cx="559.189" cy="12.819" r="12.819" fill="#3f3d56"/><path fill="#cbcbcb" d="M663 441.864H1a1 1 0 1 1 0-2h662a1 1 0 0 1 0 2ZM828 612.864H504a1 1 0 0 1 0-2h324a1 1 0 0 1 0 2Z"/><path fill="#ffb7b7" d="M619.935 425.61a7.93 7.93 0 0 0-1.034-12.115l3.932-17.69-10.168-5.01-5.201 25.058a7.973 7.973 0 0 0 12.471 9.758ZM731.119 425.998A7.93 7.93 0 0 0 729.15 414l2.551-17.94-10.524-4.21-3.247 25.386a7.973 7.973 0 0 0 13.189 8.763ZM651.862 602.078l-10.368-.001-4.932-39.99 15.302.001-.002 39.99z"/><path fill="#2f2e41" d="m654.506 612.128-33.43-.001v-.423a13.013 13.013 0 0 1 13.012-13.012h20.419Z"/><path fill="#ffb7b7" d="m686.535 602.078-10.368-.001-4.932-39.99 15.302.001-.002 39.99z"/><path fill="#2f2e41" d="m689.18 612.128-33.431-.001v-.423a13.013 13.013 0 0 1 13.012-13.012h20.419ZM707.41 265.63l11.18-4.034s4.745 1.007 4.745 13.876 12.602 132.882 12.602 132.882l-22.054 5.807-12.466-113.863ZM632.704 265.63l-11.18-4.034s-4.745 1.007-4.745 13.876-12.602 132.882-12.602 132.882l22.054 5.807 12.466-113.863ZM632.847 402.507l-3.056 90.152 6.766 99.724 17.432.402 2.537-93.025 14.377-46.512-1.45 137.092 19.738-.236 12.226-94.318s16.145-78.057 7.192-93.279l-41.232-13.711Z"/><path fill="#e5e5e5" d="m633.183 391.644-.995 21.687s13.912 6.923 38.364 2.706 40.707-1.437 40.707-1.437l-1.878-27.646Z"/><path fill="#2f2e41" d="m621.08 261.916 32.153-14.09 1.918-7.379 31.28.906 1.351 7.539 30.808 12.704-13.573 47.197 1.392 33.202 16.926 60.512s-14.277 12.125-48.577 6.908l-5.918-11.925-3.62 12.611s-30.078 11.065-38.414-3.339l6.041-104.045Z"/><circle cx="670.507" cy="212.744" r="20.771" fill="#ffb7b7"/><path fill="#2f2e41" d="M695.186 204.695a12.65 12.65 0 0 0-2.099-4.69 25.34 25.34 0 0 0-3.782-10.913 11.45 11.45 0 0 0-3.39-3.912 10.004 10.004 0 0 0-5.331-1.329c-.339-.006-.948.097-1.496.122-.35-.109-.705-.206-1.06-.297-.207-.46-.617-1.803-.732-1.712l-1.547 1.23a30.144 30.144 0 0 0-1.971-.273l-.721-2.057a14.089 14.089 0 0 0-1.023 1.922q-.985-.049-1.972-.034l-1.315-1.263a1.855 1.855 0 0 1-1.45 1.42c-.606.063-1.208.144-1.809.24h-.146c-3.239-.082-6.723-.227-9.432 1.551a9.293 9.293 0 0 0-3.002 3.408c-.331.225-.664.449-.986.688a10.78 10.78 0 0 0-2.778 2.754 11.677 11.677 0 0 0-1.229 2.978 28.551 28.551 0 0 0-1.415 9.754 14.476 14.476 0 0 0 3.558 9.034c1.39 1.492 3.155 2.594 4.546 4.085 2.864 3.069 3.4 7.35 5.85 10.597 2.59 3.434 7.319 5.695 11.472 6.342a19.163 19.163 0 0 0 14.275-3.56 8.832 8.832 0 0 0 2.43-2.548c1.442-2.493.831-5.627 1.366-8.456 1.003-5.304 6.065-9.755 5.19-15.08Z"/><path fill="#3f3d56" d="m105.555 184.546-1.194-1.604 115.116-85.703 112.871 84.19L446.764 57.205l.205-.084 111.04-45.829.763 1.849-110.836 45.744L332.597 184.11 219.476 99.733l-113.921 84.813z"/></svg>