<?xml version="1.0" ?>
<!-- Uploaded to: SVG Repo, www.svgrepo.com, Generator: SVG Repo Mixer Tools -->
<svg fill="#000000" width="800px" height="800px" viewBox="0 0 32 32" xmlns="http://www.w3.org/2000/svg">
<title/>
<g id="Youtube">
<path d="M26.49,30H5.5A3.35,3.35,0,0,1,3,29a3.35,3.35,0,0,1-1-2.48V5.5A3.35,3.35,0,0,1,3,3,3.35,3.35,0,0,1,5.5,2h21A3.35,3.35,0,0,1,29,3,3.35,3.35,0,0,1,30,5.5v21A3.52,3.52,0,0,1,26.49,30ZM16.07,22.67c.95,0,2.19,0,3.7,0,2-.07,3.12-.13,3.4-.19a2.4,2.4,0,0,0,1.19-.51,2.51,2.51,0,0,0,.78-1.13,12.33,12.33,0,0,0,.46-4.09V15.16a27.72,27.72,0,0,0-.19-3.1,3.69,3.69,0,0,0-.74-1.87c-.18-.19-.3-.28-.37-.29a2.09,2.09,0,0,0-1-.46A55,55,0,0,0,16,9.17c-1,0-2.19,0-3.52.06a27.07,27.07,0,0,0-3.8.23,2.31,2.31,0,0,0-1.47.87,4.48,4.48,0,0,0-.64,1.73,29.89,29.89,0,0,0-.17,3.1,21.82,21.82,0,0,0,.31,5.05,4.89,4.89,0,0,0,.29,1,2.52,2.52,0,0,0,1.5,1.17l.75.12a16.74,16.74,0,0,0,1.79.13C13.33,22.64,15,22.67,16.07,22.67ZM14,18.41V13l4.26,2.22c.62.32.93.49.93.5Z"/>
</g>
</svg>