<svg xmlns="http://www.w3.org/2000/svg" version="1.1" xmlns:xlink="http://www.w3.org/1999/xlink" xmlns:svgjs="http://svgjs.com/svgjs" width="2480" height="301" preserveAspectRatio="none" viewBox="0 0 2480 301"><g mask="url(&quot;#SvgjsMask1327&quot;)" fill="none"><path d="M 0,121 C 124,132 372,199.6 620,176 C 868,152.4 992,1 1240,3 C 1488,5 1612,184 1860,186 C 2108,188 2356,47.6 2480,13L2480 301L0 301z" fill="rgba(135, 135, 135, 1)"></path><path d="M 0,48 C 38.2,88.2 114.6,255.8 191,249 C 267.4,242.2 305.6,11.2 382,14 C 458.4,16.8 496.6,251.6 573,263 C 649.4,274.4 687.6,86.8 764,71 C 840.4,55.2 878.6,179 955,184 C 1031.4,189 1069.6,101.4 1146,96 C 1222.4,90.6 1260.6,156 1337,157 C 1413.4,158 1451.6,102.2 1528,101 C 1604.4,99.8 1642.6,148 1719,151 C 1795.4,154 1833.6,108.2 1910,116 C 1986.4,123.8 2024.6,212.6 2101,190 C 2177.4,167.4 2216.2,-7.2 2292,3 C 2367.8,13.2 2442.4,193.4 2480,241L2480 301L0 301z" fill="rgba(237, 237, 237, 1)"></path></g><defs><mask id="SvgjsMask1327"><rect width="2480" height="301" fill="#ffffff"></rect></mask></defs></svg>