<svg xmlns="http://www.w3.org/2000/svg" version="1.1" xmlns:xlink="http://www.w3.org/1999/xlink"
     xmlns:svgjs="http://svgjs.com/svgjs" width="2480" height="301" preserveAspectRatio="none" viewBox="0 0 2480 301">
    <g mask="url(&quot;#SvgjsMask1332&quot;)" fill="none">
        <path d="M 0,198 C 71,170 213,63.6 355,58 C 497,52.4 568,173.2 710,170 C 852,166.8 923,20.8 1065,42 C 1207,63.2 1278,259.2 1420,276 C 1562,292.8 1633,140 1775,126 C 1917,112 1989,215.6 2130,206 C 2271,196.4 2410,103.6 2480,78L2480 301L0 301z"
              fill="rgba(135, 135, 135, 1)"></path>
        <path d="M 0,53 C 38.2,76.2 114.6,175.8 191,169 C 267.4,162.2 305.6,12 382,19 C 458.4,26 496.6,206.2 573,204 C 649.4,201.8 687.6,8.8 764,8 C 840.4,7.2 878.6,191.2 955,200 C 1031.4,208.8 1069.6,50.8 1146,52 C 1222.4,53.2 1260.6,216 1337,206 C 1413.4,196 1451.6,-12.6 1528,2 C 1604.4,16.6 1642.6,265.8 1719,279 C 1795.4,292.2 1833.6,73.6 1910,68 C 1986.4,62.4 2024.6,240.8 2101,251 C 2177.4,261.2 2216.2,133 2292,119 C 2367.8,105 2442.4,168.6 2480,181L2480 301L0 301z"
              fill="#F3F4F6"></path>
    </g>
    <defs>
        <mask id="SvgjsMask1332">
            <rect width="2480" height="301" fill="#ffffff"></rect>
        </mask>
    </defs>
</svg>