<?xml version="1.0" ?>
<!-- Uploaded to: SVG Repo, www.svgrepo.com, Generator: SVG Repo Mixer Tools -->
<svg width="800px" height="800px" viewBox="0 0 48 48" id="svg5" version="1.1" xml:space="preserve" xmlns="http://www.w3.org/2000/svg" xmlns:svg="http://www.w3.org/2000/svg">
<defs id="defs2"/>
<g id="layer1" transform="translate(-242.00002,-233)">
<path d="m 283.61329,257.00003 c 0,9.66495 -7.83499,17.49996 -17.49998,17.49996 -9.66499,0 -17.50002,-7.83501 -17.50002,-17.49996 0,-9.66497 7.83503,-17.50004 17.50002,-17.50004 9.66499,0 17.49998,7.83507 17.49998,17.50004 z" id="path19337" style="fill:#e7e7e7;fill-opacity:1;fill-rule:evenodd;stroke:none;stroke-width:2;stroke-linecap:round;stroke-linejoin:round;stroke-miterlimit:4.1;stroke-opacity:1"/>
<path d="m 259.32813,240.86328 c -6.29556,2.65015 -10.71484,8.87749 -10.71484,16.13672 0,7.25922 4.41928,13.48658 10.71484,16.13672 6.29645,-2.64974 10.7168,-8.87686 10.7168,-16.13672 0,-7.25988 -4.42035,-13.48696 -10.7168,-16.13672 z" id="path22173" style="fill:#f8f8f8;fill-opacity:1;fill-rule:evenodd;stroke:none;stroke-width:2;stroke-linecap:round;stroke-linejoin:round;stroke-miterlimit:4.1;stroke-opacity:1"/>
<path d="m 276.61331,257.00002 c 0,5.79898 -4.701,10.49999 -10.5,10.49999 -5.799,0 -10.50002,-4.70101 -10.50002,-10.49999 0,-5.79899 4.70102,-10.50003 10.50002,-10.50003 5.799,0 10.5,4.70104 10.5,10.50003 z" id="path18731" style="fill:#f7c63d;fill-opacity:1;fill-rule:evenodd;stroke:none;stroke-width:2;stroke-linecap:round;stroke-linejoin:round;stroke-miterlimit:4.1;stroke-opacity:1"/>
<path d="m 266.11329,249.09375 a 1.0057659,0.99425603 0 0 0 -1.00586,0.99414 v 1.35351 c -1.42097,0.4154 -2.48437,1.6842 -2.48437,3.20313 0,1.86088 1.59682,3.34961 3.49023,3.34961 0.85191,0 1.48047,0.6222 1.48047,1.36133 0,0.73915 -0.62858,1.35742 -1.48047,1.35742 -0.8519,0 -1.47851,-0.61827 -1.47852,-1.35742 a 1.0057659,0.99425603 0 0 0 -1.00586,-0.9961 1.0057659,0.99425603 0 0 0 -1.00585,0.9961 c 0,1.51893 1.0634,2.78774 2.48437,3.20313 v 1.35351 a 1.0057659,0.99425603 0 0 0 1.00586,0.99414 1.0057659,0.99425603 0 0 0 1.00586,-0.99414 v -1.35351 c 1.42097,-0.41539 2.48632,-1.6842 2.48633,-3.20313 0,-1.86086 -1.59878,-3.34961 -3.49219,-3.34961 -0.85191,0 -1.47852,-0.62217 -1.47852,-1.36133 0,-0.73914 0.6266,-1.35742 1.47852,-1.35742 0.85191,0 1.48047,0.61828 1.48047,1.35742 a 1.0057659,0.99425603 0 0 0 1.00586,0.99609 1.0057659,0.99425603 0 0 0 1.00586,-0.99609 c 0,-1.51893 -1.06536,-2.78773 -2.48633,-3.20313 v -1.35351 a 1.0057659,0.99425603 0 0 0 -1.00586,-0.99414 z" id="path18733" style="color:#000000;fill:#808b9b;fill-opacity:1;fill-rule:evenodd;stroke:none;stroke-width:0.999999;stroke-linecap:round;stroke-linejoin:round;stroke-miterlimit:4.1;stroke-opacity:1"/>
<path d="m 281.1172,256 a 1,1 0 0 0 -1,1 1,1 0 0 0 1,1 h 4.76953 a 1,1 0 0 0 1,-1 1,1 0 0 0 -1,-1 z" id="path21678" style="color:#000000;fill:#ff5576;fill-opacity:1;fill-rule:evenodd;stroke-linecap:round;stroke-linejoin:round;stroke-miterlimit:4.1"/>
<path d="m 266.11329,236.11328 a 1,1 0 0 0 -1,1 v 4.76953 a 1,1 0 0 0 1,1 1,1 0 0 0 1,-1 v -4.76953 a 1,1 0 0 0 -1,-1 z" id="path21672" style="color:#000000;fill:#ff5576;fill-opacity:1;fill-rule:evenodd;stroke-linecap:round;stroke-linejoin:round;stroke-miterlimit:4.1"/>
<path d="m 246.11329,256 a 1,1 0 0 0 -1,1 1,1 0 0 0 1,1 h 4.76953 a 1,1 0 0 0 1,-1 1,1 0 0 0 -1,-1 z" id="path21690" style="color:#000000;fill:#ff5576;fill-opacity:1;fill-rule:evenodd;stroke-linecap:round;stroke-linejoin:round;stroke-miterlimit:4.1;-inkscape-stroke:none"/>
<path d="m 266.11329,271.11719 a 1,1 0 0 0 -1,1 v 4.76953 a 1,1 0 0 0 1,1 1,1 0 0 0 1,-1 v -4.76953 a 1,1 0 0 0 -1,-1 z" id="path21684" style="color:#000000;fill:#ff5576;fill-opacity:1;fill-rule:evenodd;stroke-linecap:round;stroke-linejoin:round;stroke-miterlimit:4.1"/>
</g>
</svg>