<svg xmlns="http://www.w3.org/2000/svg" version="1.1" xmlns:xlink="http://www.w3.org/1999/xlink" xmlns:svgjs="http://svgjs.com/svgjs" width="2480" height="301" preserveAspectRatio="none" viewBox="0 0 2480 301"><g mask="url(&quot;#SvgjsMask1345&quot;)" fill="none"><path d="M 0,17 C 99.2,52.4 297.6,185.2 496,194 C 694.4,202.8 793.6,64.8 992,61 C 1190.4,57.2 1289.6,171.6 1488,175 C 1686.4,178.4 1785.6,81.2 1984,78 C 2182.4,74.8 2380.8,142.8 2480,159L2480 301L0 301z" fill="rgba(4, 49, 0, 1)"></path><path d="M 0,163 C 38.2,136 114.6,11.6 191,28 C 267.4,44.4 305.6,247.6 382,245 C 458.4,242.4 496.6,20 573,15 C 649.4,10 687.6,202.6 764,220 C 840.4,237.4 878.6,100.2 955,102 C 1031.4,103.8 1069.6,229 1146,229 C 1222.4,229 1260.6,116.4 1337,102 C 1413.4,87.6 1451.6,168.4 1528,157 C 1604.4,145.6 1642.6,26.2 1719,45 C 1795.4,63.8 1833.6,256.8 1910,251 C 1986.4,245.2 2024.6,7.6 2101,16 C 2177.4,24.4 2216.2,269 2292,293 C 2367.8,317 2442.4,167.4 2480,136L2480 301L0 301z" fill="rgba(171, 211, 190, 1)"></path></g><defs><mask id="SvgjsMask1345"><rect width="2480" height="301" fill="#ffffff"></rect></mask></defs></svg>