<?xml version="1.0" ?>
<!-- Uploaded to: SVG Repo, www.svgrepo.com, Generator: SVG Repo Mixer Tools -->
<svg width="800px" height="800px" viewBox="0 0 48 48" id="svg5" version="1.1" xml:space="preserve" xmlns="http://www.w3.org/2000/svg" xmlns:svg="http://www.w3.org/2000/svg">
<defs id="defs2"/>
<g id="layer1" transform="translate(-242.00002,-89)">
<path d="m 249.54927,102.47302 c -0.79478,0.0956 -1.59278,0.4955 -2.15039,1.20313 -0.55761,0.70762 -0.85159,1.68627 -0.81641,2.84375 0.0646,2.12518 1.45745,3.52909 2.85352,4.51172 -0.1842,0.31485 -0.56446,1.04687 -0.56446,1.04687 a 1,1 0 0 0 0.30664,1.38086 1,1 0 0 0 1.38086,-0.30664 c 0,0 0.41135,-0.79104 0.60742,-1.125 0.85388,0.36153 1.97657,0.86328 1.97657,0.86328 a 1,1 0 0 0 1.22461,-0.70898 1,1 0 0 0 -0.70899,-1.22461 c 0,0 -0.90233,-0.41009 -1.55078,-0.67774 0.73843,-1.59943 1.52778,-3.48556 1.13281,-5.25195 -0.39562,-1.76931 -2.10185,-2.74593 -3.6914,-2.55469 z m 0.24023,1.98633 c 0.64161,-0.0772 1.33602,0.27929 1.49805,1.00391 0.15497,0.69308 -0.29631,2.3574 -0.92383,3.77929 -0.95226,-0.7302 -1.74553,-1.60807 -1.78125,-2.7832 -0.0242,-0.79653 0.16672,-1.26326 0.38867,-1.54492 0.22195,-0.28166 0.49756,-0.41648 0.81836,-0.45508 z" id="path21364" style="color:#000000;fill:#808b9b;fill-opacity:1;fill-rule:evenodd;stroke-linecap:round;stroke-linejoin:round;stroke-miterlimit:4.1"/>
<path d="m 280.37741,101.75293 c -2.54988,0 -3.87805,2.02875 -4.50781,3.50195 -2.41723,-1.14562 -5.18755,-1.75141 -8.01172,-1.75195 -8.5602,0 -15.4997,5.44334 -15.5,12.1582 0.008,3.02543 1.45377,5.93983 4.05469,8.17383 v 6.34375 c 0,1.01977 0.82203,1.8418 1.84179,1.8418 h 1.31836 c 1.01977,0 1.83985,-0.82203 1.83985,-1.8418 v -3.46094 c 2.02279,0.72571 4.221,1.10141 6.44531,1.10158 1.88238,-0.0124 3.74614,-0.2937 5.5,-0.83009 v 3.1914 c 0,1.01977 0.82008,1.83985 1.83984,1.83985 h 1.32032 c 1.01976,0 1.83984,-0.82008 1.83984,-1.83985 v -5.64256 c 2.38995,-1.73408 4.02316,-4.01443 4.66797,-6.51759 h 2.39453 V 110.6377 H 281.936 c -0.42589,-0.75245 -0.9481,-1.46902 -1.55859,-2.13868 z" id="path18289" style="fill:#fafafa;fill-opacity:1;fill-rule:evenodd;stroke:none;stroke-width:2.00001;stroke-linecap:round;stroke-linejoin:round;stroke-miterlimit:4.1;stroke-opacity:1"/>
<path d="m 279.17233,113.74708 a 10.162025,23.980702 69.536864 0 0 -11.37304,1.96093 10.162025,23.980702 69.536864 0 0 -13.33789,6.03711 c 0.55104,0.74351 1.20133,1.4458 1.95117,2.08985 v 6.34375 c 0,1.01976 0.82204,1.84179 1.84179,1.84179 h 1.31836 c 1.01977,0 1.83984,-0.82202 1.83984,-1.84179 v -3.46094 c 2.0228,0.72571 4.22101,1.10139 6.44532,1.10156 1.88238,-0.0124 3.74615,-0.29369 5.5,-0.83008 v 3.19141 c 0,1.01977 0.82008,1.83984 1.83985,1.83984 h 1.3203 c 1.01977,-1e-5 1.83985,-0.82008 1.83985,-1.83985 v -5.64258 c 2.38995,-1.73407 4.02316,-4.01442 4.66797,-6.51757 l 2.39453,1e-5 v -3.61133 a 10.162025,23.980702 69.536864 0 0 -6.24805,-0.66211 z" id="path18460" style="fill:#e4e9ef;fill-opacity:1;fill-rule:evenodd;stroke-width:0.999998;stroke-linecap:round;stroke-linejoin:round;stroke-miterlimit:4.1"/>
<circle cx="276.72794" cy="111.47606" id="path30179" r="1.25" style="fill:#ff5576;fill-opacity:1;fill-rule:evenodd;stroke:none;stroke-width:2;stroke-linecap:round;stroke-linejoin:round;stroke-miterlimit:4.1;stroke-opacity:1"/>
<path d="m 264.69772,107.2666 c -2.08577,0.0266 -4.13697,0.56606 -6.11132,1.53516 a 1,1 0 0 0 -0.45704,1.33789 1,1 0 0 0 1.33789,0.45703 c 3.51515,-1.72538 6.92355,-1.91148 10.63672,-0.008 a 1,1 0 0 0 1.34571,-0.43359 1,1 0 0 0 -0.4336,-1.34571 c -2.11315,-1.08337 -4.23259,-1.56958 -6.31836,-1.54297 z" id="path29991" style="color:#000000;fill:#ff5576;fill-opacity:1;fill-rule:evenodd;stroke-linecap:round;stroke-linejoin:round;stroke-miterlimit:4.1;-inkscape-stroke:none"/>
<path d="m 271.7933,100.97996 c 0,3.86599 -3.13401,7 -7,7 -3.86599,0 -7,-3.13401 -7,-7 0,-3.865995 3.13401,-7.000002 7,-7.000002 3.86599,0 7,3.134007 7,7.000002 z" id="path29993" style="fill:#f2a50c;fill-opacity:1;fill-rule:evenodd;stroke-width:2.00001;stroke-linecap:round;stroke-linejoin:round;stroke-miterlimit:4.1"/>
<path d="m 264.79343,93.979492 c -3.86599,0 -7,3.134011 -7,6.999998 0,1.10125 0.25395,2.14338 0.70703,3.07032 a 8.6559811,7.5925183 0 0 0 3.55273,0.67382 8.6559811,7.5925183 0 0 0 8.64844,-7.496091 c -1.2422,-1.951802 -3.42323,-3.248047 -5.9082,-3.248047 z" id="path23613" style="fill:#fcca3d;fill-opacity:1;fill-rule:evenodd;stroke-linecap:round;stroke-linejoin:round;stroke-miterlimit:4.1"/>
<path d="m 264.79343,97.331055 a 1,1 0 0 0 -1,1 v 1.648437 h -1.64844 a 1,1 0 0 0 -1,0.999998 1,1 0 0 0 1,1 h 1.64844 v 1.64844 a 1,1 0 0 0 1,1 1,1 0 0 0 1,-1 v -1.64844 h 1.64843 a 1,1 0 0 0 1,-1 1,1 0 0 0 -1,-0.999998 h -1.64843 v -1.648437 a 1,1 0 0 0 -1,-1 z" id="path31203" style="color:#000000;fill:#808b9b;fill-opacity:1;fill-rule:evenodd;stroke-linecap:round;stroke-linejoin:round;stroke-miterlimit:4.1"/>
</g>
</svg>