<?xml version="1.0" ?>
<!-- Uploaded to: SVG Repo, www.svgrepo.com, Generator: SVG Repo Mixer Tools -->
<svg width="800px" height="800px" viewBox="0 0 48 48" id="svg5" version="1.1" xml:space="preserve" xmlns="http://www.w3.org/2000/svg" xmlns:svg="http://www.w3.org/2000/svg">
<defs id="defs2"/>
<g id="layer1" transform="translate(-26,-161)">
<path d="m 31,177.5 h 30 v 3 h 5 l -2e-6,24 H 31 Z" id="path3671" style="fill:#e7e7e7;fill-opacity:1;fill-rule:evenodd;stroke:none;stroke-width:2;stroke-linecap:round;stroke-linejoin:round;stroke-miterlimit:4.1;stroke-dasharray:none;stroke-opacity:1"/>
<path d="m 31,177.5 v 27 H 45.685547 A 26.270222,25.025251 0 0 0 58.646484,182.98242 26.270222,25.025251 0 0 0 58,177.5 Z" id="path18448" style="fill:#fafafa;fill-opacity:1;fill-rule:evenodd;stroke:none;stroke-width:2;stroke-linecap:round;stroke-linejoin:round;stroke-miterlimit:4.1;stroke-dasharray:none;stroke-opacity:1"/>
<path d="M 44,180.5 H 34 c -1.656854,0 -3,-1.34315 -3,-3 0,-1.65685 1.343146,-3 3,-3 h 27 v 6 h -9" id="path1021" style="color:#000000;fill:#e7e7e7;fill-opacity:1;fill-rule:evenodd;stroke-width:2;stroke-linecap:round;stroke-linejoin:round;stroke-miterlimit:4.1;-inkscape-stroke:none"/>
<path d="m 55.92827,173.5 c 0,4.41826 -3.581706,7.99998 -7.99998,7.99998 -4.418275,0 -8,-3.58172 -8,-7.99998 0,-4.41827 3.581725,-8 8,-8 4.418274,0 7.99998,3.58173 7.99998,8 z" id="path6148" style="fill:#f2a50c;fill-opacity:1;fill-rule:evenodd;stroke:none;stroke-width:2;stroke-linecap:round;stroke-linejoin:round;stroke-miterlimit:4.1;stroke-opacity:1"/>
<path d="m 47.927734,165.5 c -4.41827,0 -8,3.58173 -8,8 0,2.72963 1.36823,5.13833 3.455078,6.58203 a 8.3488474,8.7200861 0 0 0 1.041016,0.0762 8.3488474,8.7200861 0 0 0 8.34961,-8.7207 8.3488474,8.7200861 0 0 0 -1.726563,-5.30664 C 50.088694,165.72496 49.033854,165.5 47.927734,165.5 Z" id="path16456" style="fill:#f7c63d;fill-opacity:1;fill-rule:evenodd;stroke:none;stroke-width:2;stroke-linecap:round;stroke-linejoin:round;stroke-miterlimit:4.1;stroke-dasharray:none;stroke-opacity:1"/>
<path d="m 47.927734,167.23828 a 1.0057675,0.9942576 0 0 0 -1.005859,0.99609 v 0.86524 c -1.089982,0.39475 -1.892578,1.40479 -1.892578,2.60742 0,1.55136 1.331854,2.78711 2.898437,2.78711 0.52508,0 0.888672,0.36923 0.888672,0.79883 -10e-7,0.42962 -0.363602,0.79882 -0.888672,0.79882 -0.525074,0 -0.886717,-0.3692 -0.886718,-0.79882 a 1.0057675,0.9942576 0 0 0 -1.00586,-0.99414 1.0057675,0.9942576 0 0 0 -1.005859,0.99414 c 2e-6,1.20263 0.802595,2.21267 1.892578,2.60742 v 0.86523 a 1.0057675,0.9942576 0 0 0 1.005859,0.9961 1.0057675,0.9942576 0 0 0 1.00586,-0.9961 v -0.86328 c 1.091172,-0.39414 1.894528,-1.40587 1.894531,-2.60937 0,-1.55135 -1.33381,-2.78711 -2.900391,-2.78711 -0.525083,0 -0.886718,-0.3692 -0.886718,-0.79883 0,-0.42961 0.36163,-0.79883 0.886718,-0.79883 0.525084,0 0.888672,0.36922 0.888672,0.79883 a 1.0057675,0.9942576 0 0 0 1.00586,0.99414 1.0057675,0.9942576 0 0 0 1.005859,-0.99414 c 0,-1.20349 -0.80336,-2.21523 -1.894531,-2.60938 v -0.86328 a 1.0057675,0.9942576 0 0 0 -1.00586,-0.99609 z" id="path6150" style="color:#000000;fill:#808b9b;fill-opacity:1;fill-rule:evenodd;stroke:none;stroke-width:0.999996;stroke-linecap:round;stroke-linejoin:round;stroke-miterlimit:4.1;-inkscape-stroke:none"/>
<path d="m 48.25,200.5 a 1,1 0 0 0 1,-1 1,1 0 0 0 -1,-1 h -5 a 1,1 0 0 0 -1,1 1,1 0 0 0 1,1 z" id="path1017" style="color:#000000;fill:#ff5576;fill-opacity:1;fill-rule:evenodd;stroke-linecap:round;stroke-linejoin:round;stroke-miterlimit:4.1;-inkscape-stroke:none"/>
<circle cx="-39.25" cy="-199.5" id="circle7651" r="1.25" style="fill:#ff5576;fill-opacity:1;fill-rule:evenodd;stroke:none;stroke-width:2;stroke-linecap:round;stroke-linejoin:round;stroke-miterlimit:4.1;stroke-dasharray:none;stroke-opacity:1" transform="scale(-1)"/>
<circle cx="-35.25" cy="-199.5" id="circle7653" r="1.25" style="fill:#ff5576;fill-opacity:1;fill-rule:evenodd;stroke:none;stroke-width:2;stroke-linecap:round;stroke-linejoin:round;stroke-miterlimit:4.1;stroke-dasharray:none;stroke-opacity:1" transform="scale(-1)"/>
<path d="m 55.455078,185.49805 a 6.4506679,6.4506679 0 0 0 -6.449219,6.45117 6.4506679,6.4506679 0 0 0 4.296875,6.06445 26.270222,25.025251 0 0 0 5.089844,-11.80469 6.4506679,6.4506679 0 0 0 -2.9375,-0.71093 z" id="path18454" style="fill:#fafafa;fill-opacity:1;fill-rule:evenodd;stroke:none;stroke-width:2;stroke-linecap:round;stroke-linejoin:round;stroke-miterlimit:4.1;stroke-dasharray:none;stroke-opacity:1"/>
<path d="m 55,188.5 h 14 v 8 H 55 c -2.209139,0 -4,-1.79086 -4,-4 0,-2.20914 1.790861,-4 4,-4 z" id="path2160" style="color:#000000;fill:#ff5576;fill-opacity:1;fill-rule:evenodd;stroke-width:2;stroke-linecap:round;stroke-linejoin:round;stroke-miterlimit:4.1"/>
<circle cx="55" cy="192.5" id="path2970" r="1.25" style="fill:#e7e7e7;fill-opacity:1;fill-rule:evenodd;stroke:none;stroke-width:2;stroke-linecap:round;stroke-linejoin:round;stroke-miterlimit:4.1;stroke-dasharray:none;stroke-opacity:1"/>
</g>
</svg>