<?xml version="1.0" ?>
<!-- Uploaded to: SVG Repo, www.svgrepo.com, Generator: SVG Repo Mixer Tools -->
<svg width="800px" height="800px" viewBox="0 0 48 48" id="svg5" version="1.1" xml:space="preserve" xmlns="http://www.w3.org/2000/svg" xmlns:svg="http://www.w3.org/2000/svg">
<defs id="defs2"/>
<g id="layer1" transform="translate(-98,-89)">
<path d="m 109,104 a 1,1 0 0 0 -1,1 1,1 0 0 0 1,1 1,1 0 0 0 1,-1 1,1 0 0 0 -1,-1 z" id="path20378" style="color:#000000;fill:#808b9b;fill-opacity:1;fill-rule:evenodd;stroke-linecap:round;stroke-linejoin:round;stroke-miterlimit:4.1;-inkscape-stroke:none"/>
<path d="m 135,104 a 1,1 0 0 0 -1,1 1,1 0 0 0 1,1 1,1 0 0 0 1,-1 1,1 0 0 0 -1,-1 z" id="path20380" style="color:#000000;fill:#808b9b;fill-opacity:1;fill-rule:evenodd;stroke-linecap:round;stroke-linejoin:round;stroke-miterlimit:4.1;-inkscape-stroke:none"/>
<path d="m 130,117 5,-10 5,10 z" id="path14111" style="fill:#e4e9ef;fill-opacity:1;fill-rule:evenodd;stroke:none;stroke-width:2;stroke-linecap:round;stroke-linejoin:round;stroke-miterlimit:4.1;stroke-opacity:1"/>
<path d="m 104,117 5,-10 5,10 z" id="path20409" style="fill:#e4e9ef;fill-opacity:1;fill-rule:evenodd;stroke:none;stroke-width:2;stroke-linecap:round;stroke-linejoin:round;stroke-miterlimit:4.1;stroke-opacity:1"/>
<path d="m 129.57522,117 h 10.84956 v 0.74449 A 5.4247784,5.2114142 0 0 1 135,122.9559 a 5.4247784,5.2114142 0 0 1 -5.42478,-5.21141 z" id="path14113" style="fill:#f2a50c;fill-opacity:1;fill-rule:evenodd;stroke:none;stroke-width:2;stroke-linecap:round;stroke-linejoin:round;stroke-miterlimit:4.1"/>
<path d="m 129.57617,117 v 0.74414 a 5.4247784,5.2114142 -180 0 0 2.08398,4.10351 2.941319,10.692323 60 0 0 2.62891,-1.3789 A 2.941319,10.692323 60 0 0 139.26562,117 Z" id="path22605" style="fill:#f7c63d;fill-opacity:1;fill-rule:evenodd;stroke:none;stroke-linecap:round;stroke-linejoin:round;stroke-miterlimit:4.1;stroke-opacity:1"/>
<path d="m 103.57522,117 h 10.84956 v 0.74449 A 5.4247784,5.2114142 0 0 1 109,122.9559 a 5.4247784,5.2114142 0 0 1 -5.42478,-5.21141 z" id="path20411" style="fill:#f2a50c;fill-opacity:1;fill-rule:evenodd;stroke:none;stroke-width:2;stroke-linecap:round;stroke-linejoin:round;stroke-miterlimit:4.1"/>
<path d="m 103.57523,117 -1e-5,0.74414 a 5.4247784,5.2114142 0 0 0 2.08399,4.10351 2.941319,10.692323 60 0 0 2.62891,-1.3789 A 2.941319,10.692323 60 0 0 113.26468,117 Z" id="path22736" style="fill:#f7c63d;fill-opacity:1;fill-rule:evenodd;stroke:none;stroke-linecap:round;stroke-linejoin:round;stroke-miterlimit:4.1;stroke-opacity:1"/>
<path d="m 122,97.980469 a 1,1 0 0 0 -1,1 v 3.000001 h -15 a 1,1 0 0 0 -1,1 1,1 0 0 0 1,1 h 15 v 24 a 1,1 0 0 0 1,1 1,1 0 0 0 1,-1 v -24 h 15 a 1,1 0 0 0 1,-1 1,1 0 0 0 -1,-1 h -15 v -3.000001 a 1,1 0 0 0 -1,-1 z" id="path15290" style="color:#000000;fill:#808b9b;fill-opacity:1;fill-rule:evenodd;stroke-linecap:round;stroke-linejoin:round;stroke-miterlimit:4.1;-inkscape-stroke:none"/>
<path d="m 118,128 h 8 a 2,2 0 0 1 2,2 v 2 h -12 v -2 a 2,2 0 0 1 2,-2 z" id="path18618" style="color:#000000;fill:#e4e9ef;fill-opacity:1;fill-rule:evenodd;stroke-width:2;stroke-linecap:round;stroke-linejoin:round;stroke-miterlimit:4.1;-inkscape-stroke:none"/>
<path d="m 125,97.000008 a 3.0000081,3.0000081 0 0 1 -3.00001,3.000012 3.0000081,3.0000081 0 0 1 -3.00001,-3.000012 A 3.0000081,3.0000081 0 0 1 121.99999,94 3.0000081,3.0000081 0 0 1 125,97.000008 Z" id="path18164" style="color:#000000;fill:#ff5576;fill-opacity:1;fill-rule:evenodd;stroke-width:2;stroke-linecap:round;stroke-linejoin:round;stroke-miterlimit:4.1;-inkscape-stroke:none"/>
</g>
</svg>